<?xml version="1.0" standalone="no"?>
<!DOCTYPE svg PUBLIC "-//W3C//DTD SVG 20010904//EN"
 "http://www.w3.org/TR/2001/REC-SVG-20010904/DTD/svg10.dtd">
<svg version="1.0" xmlns="http://www.w3.org/2000/svg"
 width="564.000000pt" height="564.000000pt" viewBox="0 0 564.000000 564.000000"
 preserveAspectRatio="xMidYMid meet">

<g transform="translate(0.000000,564.000000) scale(0.100000,-0.100000)"
fill="#000000" stroke="none">
<path d="M2520 5499 c-25 -5 -81 -13 -125 -18 -44 -5 -102 -14 -130 -21 -97
-21 -140 -32 -180 -45 -22 -7 -74 -23 -115 -36 -203 -60 -530 -227 -717 -365
-40 -30 -76 -54 -81 -54 -4 0 -15 -8 -23 -17 -9 -10 -36 -34 -59 -53 -54 -45
-330 -316 -330 -325 0 -4 -13 -21 -30 -38 -125 -133 -315 -451 -417 -697 -47
-111 -110 -309 -124 -385 -6 -33 -17 -82 -25 -110 -7 -27 -16 -75 -19 -105 -3
-30 -10 -86 -15 -125 -12 -91 -12 -529 0 -625 5 -41 14 -104 19 -140 10 -72
57 -283 70 -315 5 -11 16 -47 26 -80 10 -33 24 -73 31 -90 6 -16 26 -66 44
-110 41 -101 156 -326 206 -402 73 -111 159 -228 196 -268 20 -22 50 -58 66
-80 33 -45 228 -238 254 -251 9 -5 40 -31 70 -57 29 -27 89 -74 133 -106 73
-52 103 -71 244 -153 94 -55 285 -146 363 -172 26 -9 56 -20 65 -25 48 -26
203 -66 388 -101 61 -12 135 -26 165 -33 76 -17 655 -16 730 0 30 7 102 21
160 32 156 29 356 80 392 101 9 5 56 24 105 43 240 93 510 254 713 425 139
117 313 296 405 416 11 15 25 32 31 39 83 95 255 394 335 582 97 230 154 445
190 715 16 116 16 570 0 695 -26 208 -93 479 -150 608 -11 27 -21 54 -21 60 0
10 -130 274 -183 372 -40 74 -201 297 -273 379 -107 123 -319 324 -414 393
-47 34 -99 74 -116 88 -18 14 -35 25 -38 25 -3 0 -25 14 -48 30 -22 17 -47 30
-55 30 -7 0 -13 4 -13 9 0 5 -21 18 -47 30 -27 11 -64 29 -83 40 -19 11 -53
28 -75 37 -22 10 -47 23 -55 30 -8 6 -49 24 -90 38 -41 15 -88 33 -105 41 -16
8 -48 19 -70 25 -22 6 -62 18 -90 27 -112 33 -237 61 -365 80 -122 18 -647 27
-720 12z m525 -34 c430 -25 881 -180 1273 -438 83 -56 152 -103 152 -106 -1
-14 -20 -30 -95 -81 -44 -29 -81 -57 -83 -62 -2 -4 -9 -8 -15 -8 -7 0 -48 -23
-92 -50 -44 -27 -96 -59 -115 -70 -19 -11 -60 -36 -90 -55 -30 -19 -91 -53
-135 -75 -44 -23 -107 -56 -140 -75 -118 -68 -231 -123 -275 -135 -25 -7 -65
-22 -90 -35 -25 -12 -51 -20 -57 -18 -7 3 -13 0 -13 -6 0 -6 -9 -11 -19 -11
-11 0 -27 -7 -35 -16 -11 -10 -16 -11 -16 -3 0 8 -7 5 -20 -6 -11 -10 -30 -19
-43 -21 -12 -1 -23 -3 -24 -4 -2 -2 -6 -3 -10 -4 -5 -1 -14 -5 -21 -10 -7 -4
-16 -6 -19 -3 -2 3 -25 -5 -50 -19 -25 -13 -52 -24 -59 -24 -8 0 -14 -5 -14
-11 0 -6 -8 -8 -19 -4 -11 3 -22 2 -25 -3 -3 -6 -18 -13 -33 -17 -15 -3 -38
-14 -52 -24 -14 -10 -37 -22 -50 -26 -21 -6 -55 -35 -162 -137 -16 -15 -29
-32 -29 -38 0 -5 -4 -10 -10 -10 -5 0 -10 -6 -10 -12 0 -12 -11 -27 -75 -101
-13 -16 -44 -72 -69 -125 -24 -53 -98 -203 -163 -332 -66 -130 -136 -280 -157
-335 -21 -55 -46 -118 -56 -140 -24 -56 -52 -133 -50 -141 1 -4 -2 -10 -7 -13
-11 -8 -35 -72 -35 -93 1 -10 -3 -20 -9 -23 -5 -4 -9 -17 -9 -31 0 -14 -5 -34
-10 -45 -6 -11 -13 -34 -15 -52 -5 -48 -13 -88 -24 -124 -5 -17 -7 -34 -4 -37
3 -3 1 -11 -4 -18 -25 -32 -38 -234 -22 -326 10 -55 45 -132 59 -132 4 0 10
-8 12 -18 8 -29 95 -73 148 -74 69 -3 219 13 225 22 3 5 12 7 19 4 7 -3 33 2
57 10 24 7 69 19 99 26 30 6 69 18 85 25 70 30 70 30 140 -36 36 -35 89 -79
118 -99 29 -19 72 -51 97 -69 25 -18 61 -40 80 -48 19 -8 42 -21 50 -28 8 -7
43 -27 77 -45 35 -18 60 -36 57 -41 -3 -5 0 -26 7 -47 7 -20 12 -41 11 -46 -2
-5 2 -23 8 -40 7 -17 20 -62 30 -101 21 -79 41 -136 74 -210 13 -27 34 -80 47
-118 13 -37 27 -67 31 -67 5 0 8 -7 8 -15 0 -18 161 -185 178 -185 7 0 12 -4
12 -10 0 -5 7 -10 15 -10 8 0 15 -3 15 -7 0 -33 142 -43 228 -18 59 18 135 86
171 153 6 11 17 27 23 34 30 32 101 170 132 253 10 28 29 73 41 100 26 58 38
87 39 97 1 3 4 10 9 14 4 4 7 15 7 24 0 31 65 80 332 254 48 31 92 56 97 56 6
0 11 5 11 10 0 6 4 10 10 10 5 0 39 19 74 42 203 135 305 196 461 276 31 16
90 57 114 80 22 21 24 6 6 -50 -53 -165 -220 -489 -321 -625 -22 -28 -46 -61
-54 -74 -74 -109 -331 -374 -475 -490 -71 -58 -244 -176 -325 -222 -280 -162
-646 -289 -955 -332 -136 -19 -378 -34 -465 -28 -459 27 -751 99 -1105 273
-216 106 -340 185 -525 335 -78 63 -296 277 -342 336 -15 19 -43 53 -62 77
-256 313 -463 775 -530 1182 -34 212 -39 264 -38 475 0 304 32 527 114 790 51
165 82 242 160 401 93 190 168 305 358 548 33 42 166 176 175 176 4 0 4 -12 0
-27 -4 -16 -9 -91 -10 -168 -5 -248 30 -364 153 -496 72 -78 132 -123 192
-144 54 -19 137 -5 163 28 41 51 70 112 88 182 32 126 33 158 3 375 -11 79 -8
233 5 285 26 104 34 132 53 185 31 84 46 116 71 147 12 15 31 46 42 68 11 22
27 45 35 51 8 7 35 30 59 52 111 102 485 199 846 221 136 8 170 8 380 -4z
m-1331 -257 c-24 -28 -24 -29 -78 -111 -43 -65 -59 -106 -105 -264 -38 -130
-43 -218 -21 -418 17 -159 18 -223 5 -286 -13 -61 -65 -179 -79 -179 -5 0 -14
-7 -20 -15 -27 -38 -109 -25 -176 27 -42 33 -140 128 -140 136 0 4 -13 23 -28
42 -50 61 -72 174 -73 364 0 174 15 251 58 298 76 84 344 270 518 360 140 73
171 83 139 46z m3046 -554 c166 -170 305 -349 384 -495 263 -482 366 -866 366
-1363 0 -223 -21 -399 -75 -641 -9 -38 -19 -83 -22 -99 -5 -22 -16 -33 -52
-47 -25 -11 -59 -26 -74 -34 -16 -8 -35 -15 -42 -15 -8 0 -18 -6 -22 -13 -14
-23 -102 -86 -159 -113 -29 -14 -56 -30 -59 -35 -4 -5 -11 -7 -16 -4 -5 4 -9
2 -9 -4 0 -5 -9 -13 -20 -16 -11 -4 -44 -22 -73 -41 -29 -19 -75 -46 -104 -60
-29 -14 -57 -32 -64 -40 -6 -8 -17 -14 -23 -14 -14 0 -129 -59 -136 -70 -3 -4
-19 -15 -37 -23 -17 -9 -46 -30 -65 -47 -18 -17 -51 -43 -73 -58 -86 -58 -205
-179 -205 -209 0 -3 -13 -33 -29 -67 -32 -68 -57 -129 -66 -164 -4 -12 -26
-57 -50 -99 -25 -43 -47 -90 -51 -105 -3 -16 -9 -28 -14 -28 -4 0 -34 -32 -65
-70 -31 -39 -65 -70 -74 -70 -10 0 -21 -3 -25 -7 -23 -24 -112 -23 -158 1 -54
28 -188 154 -210 198 -19 37 -50 108 -53 123 -2 6 -14 35 -28 66 -28 60 -70
180 -93 269 -8 30 -21 61 -29 70 -7 8 -21 41 -30 72 -20 69 -38 94 -92 122
-23 11 -97 49 -164 84 -127 65 -191 111 -271 195 -37 39 -56 50 -83 53 -27 2
-35 -1 -35 -14 0 -11 -3 -13 -8 -6 -5 8 -21 7 -57 -3 -27 -8 -65 -17 -83 -20
-17 -3 -32 -9 -32 -13 0 -5 -9 -6 -20 -3 -11 3 -26 1 -33 -5 -12 -10 -50 -19
-112 -27 -16 -2 -31 -4 -32 -5 -12 -7 -129 -1 -164 9 -38 10 -48 19 -62 52 -9
21 -21 39 -25 39 -5 0 -9 6 -10 13 -1 6 -8 48 -17 92 -8 44 -13 87 -10 95 7
25 17 93 20 130 1 19 5 44 10 55 20 55 25 73 31 105 19 111 25 147 27 162 1 9
6 14 11 11 5 -4 7 1 3 10 -3 9 -2 19 2 21 5 3 14 27 21 53 7 27 17 53 22 59 4
6 14 31 22 55 19 59 71 188 112 275 19 40 34 77 34 83 0 6 4 19 9 29 5 9 26
52 47 96 21 43 48 94 61 113 22 33 86 152 88 163 0 3 6 19 12 35 7 17 17 49
23 73 6 25 17 42 25 42 8 0 23 17 34 38 11 21 44 71 73 110 29 39 61 83 71 97
26 36 150 126 232 168 79 41 198 89 265 107 25 7 104 36 175 65 72 29 155 61
185 70 56 19 193 85 246 121 16 10 47 28 69 39 22 11 46 26 53 32 12 12 18 14
37 13 3 0 15 8 26 19 12 11 33 22 47 26 32 8 54 24 47 35 -3 4 8 10 23 13 15
3 38 15 51 26 13 12 30 21 37 21 7 0 17 6 21 14 4 7 25 21 46 31 20 9 37 21
37 26 0 5 9 9 20 9 11 0 20 4 20 9 0 5 14 14 30 21 17 7 30 16 30 21 0 5 6 9
13 9 6 1 44 27 82 59 l70 58 55 -47 c30 -26 116 -110 190 -186z"/>
<path d="M2565 3373 c-16 -3 -34 -9 -39 -14 -6 -5 -19 -9 -31 -9 -30 0 -128
-95 -167 -162 -18 -31 -46 -76 -61 -101 -29 -48 -40 -106 -40 -227 0 -59 5
-74 48 -155 26 -49 52 -94 56 -99 5 -6 9 -17 9 -26 0 -19 71 -100 88 -100 7 0
12 -4 12 -10 0 -5 7 -10 15 -10 8 0 30 -9 49 -19 61 -35 110 -43 176 -30 33 6
63 16 66 20 3 5 16 9 30 9 13 0 24 4 24 9 0 4 11 20 25 35 14 15 28 39 31 54
3 15 14 55 25 89 19 66 24 143 14 208 -8 51 -42 188 -60 240 -7 22 -21 65 -30
95 -26 88 -47 121 -103 167 -53 43 -64 46 -137 36z m114 -94 c48 -51 58 -65
64 -97 6 -31 6 -31 -26 -26 -18 3 -38 8 -45 10 -24 7 -80 -27 -105 -64 -30
-44 -87 -221 -87 -269 0 -76 20 -121 87 -193 81 -88 116 -100 194 -70 42 17
54 18 60 8 21 -33 -2 -64 -69 -94 -68 -30 -121 -32 -193 -9 -30 10 -56 18 -59
18 -11 -1 -100 80 -100 91 0 6 -11 23 -24 38 -14 14 -23 28 -20 31 3 3 -2 19
-11 36 -8 17 -13 31 -10 31 4 0 -4 14 -16 31 -19 28 -21 40 -17 112 3 45 16
116 29 157 12 41 23 77 24 80 8 24 24 52 54 90 63 81 97 107 149 116 8 1 16 5
19 7 13 13 78 -9 102 -34z"/>
<path d="M3423 2318 c-44 -4 -94 -13 -110 -20 -15 -6 -31 -12 -36 -12 -16 -2
-77 -58 -77 -71 0 -8 -4 -15 -10 -15 -5 0 -10 -8 -11 -17 0 -10 -9 -31 -20
-48 -49 -76 -71 -136 -64 -172 3 -20 9 -55 11 -77 5 -39 10 -52 46 -118 25
-45 137 -142 211 -181 25 -14 78 -32 119 -42 40 -10 78 -22 84 -26 6 -5 29 -9
50 -9 21 0 46 0 54 -1 50 -3 141 5 146 12 3 5 16 9 29 9 27 0 67 15 105 40 14
9 41 23 60 30 19 8 37 16 40 20 3 3 17 13 32 23 22 14 27 25 27 55 0 20 1 46
1 57 2 42 -19 122 -36 136 -8 6 -14 17 -14 23 -1 30 -119 184 -205 268 -38 36
-135 102 -155 105 -8 1 -33 8 -55 16 -54 20 -123 24 -222 15z m177 -60 c0 -4
7 -5 15 -2 8 4 15 1 15 -4 0 -6 16 -14 35 -18 19 -3 39 -12 46 -20 6 -8 16
-14 21 -14 5 0 17 -7 26 -16 15 -15 14 -16 -8 -9 -14 4 -38 13 -55 19 -40 16
-141 20 -150 7 -3 -6 -11 -8 -17 -5 -6 4 -17 -1 -25 -11 -7 -11 -13 -16 -13
-12 0 11 -53 -44 -81 -83 -82 -118 -77 -186 28 -312 56 -68 69 -77 112 -88 74
-18 262 15 328 57 33 20 83 72 84 87 1 6 2 16 4 21 1 6 3 27 3 47 2 48 19 42
49 -15 77 -146 56 -201 -107 -275 -25 -12 -63 -25 -85 -31 -62 -16 -223 -15
-270 2 -22 8 -58 17 -80 21 -65 12 -132 56 -219 141 -17 18 -39 36 -49 42 -20
11 -59 136 -58 188 0 35 40 116 76 157 14 15 25 36 25 47 0 10 8 21 18 24 9 3
28 12 42 20 42 24 74 36 105 39 59 6 185 3 185 -4z"/>
</g>
</svg>
